<svg width="496" height="272" viewBox="0 0 496 272" xmlns="http://www.w3.org/2000/svg" lang="en" xml:lang="en"><rect x="2" y="2" stroke-width="4" rx="6" width="492" height="268" stroke="rgba(56,139,253,0.4)" fill="#0d1117"/><g font-weight="600" font-size="110pt" font-family="Verdana,Geneva,DejaVu Sans,sans-serif" text-rendering="geometricPrecision"><g transform="translate(0, 21)" fill="#c9d1d9"><g transform="translate(15, 0)"><g transform="scale(0.095)"><text x="0" y="132" textLength="3652" lengthAdjust="spacingAndGlyphs">Language Distribution in Public Repositories</text></g></g><g transform="translate(263, 21)"><circle cx="102" cy="102" r="102" fill="#ffffff"/></g><g transform="translate(264, 22)"><path fill-rule="evenodd" fill="#4F5D95" d="M 0.0,101.00000000000001 A 101 101 0 1 1 130.74933706188386 197.51930866090174 L 101,101 Z"/><path fill-rule="evenodd" fill="#f1e05a" d="M 130.74933706188386,197.51930866090174 A 101 101 0 0 1 51.500122221994836 189.03841263881662 L 101,101 Z"/><path fill-rule="evenodd" fill="#DA5B0B" d="M 51.500122221994836,189.03841263881662 A 101 101 0 0 1 28.795099022200006 171.62189656746764 L 101,101 Z"/><path fill-rule="evenodd" fill="#3178c6" d="M 28.795099022200006,171.62189656746764 A 101 101 0 0 1 15.12382631015332 154.16279518978743 L 101,101 Z"/><path fill-rule="evenodd" fill="#3572A5" d="M 15.12382631015332,154.16279518978743 A 101 101 0 0 1 7.668470785053614 139.60344096579487 L 101,101 Z"/><path fill-rule="evenodd" fill="#663399" d="M 7.668470785053614,139.60344096579487 A 101 101 0 0 1 3.0184142396904576 125.50732241382372 L 101,101 Z"/><path fill-rule="evenodd" fill="#e34c26" d="M 3.0184142396904576,125.50732241382372 A 101 101 0 0 1 0.9495156018543014 114.81667730304237 L 101,101 Z"/><path fill-rule="evenodd" fill="#959da5" d="M 0.9495156018543014,114.81667730304237 A 101 101 0 0 1 0.0 101.00000000000004 L 101,101 Z"/></g><g transform="translate(15, 21)"><rect x="0.5" y="0.5" rx="2" width="15" height="15" fill="#4F5D95" stroke-width="1" stroke="#ffffff"/><text transform="scale(0.095)" x="263" y="132" textLength="1005" lengthAdjust="spacingAndGlyphs">PHP 70.24%</text></g><g transform="translate(15, 42)"><rect x="0.5" y="0.5" rx="2" width="15" height="15" fill="#f1e05a" stroke-width="1" stroke="#ffffff"/><text transform="scale(0.095)" x="263" y="132" textLength="1516" lengthAdjust="spacingAndGlyphs">JavaScript 12.91%</text></g><g transform="translate(15, 63)"><rect x="0.5" y="0.5" rx="2" width="15" height="15" fill="#DA5B0B" stroke-width="1" stroke="#ffffff"/><text transform="scale(0.095)" x="263" y="132" textLength="2020" lengthAdjust="spacingAndGlyphs">Jupyter Notebook 4.52%</text></g><g transform="translate(15, 84)"><rect x="0.5" y="0.5" rx="2" width="15" height="15" fill="#3178c6" stroke-width="1" stroke="#ffffff"/><text transform="scale(0.095)" x="263" y="132" textLength="1462" lengthAdjust="spacingAndGlyphs">TypeScript 3.50%</text></g><g transform="translate(15, 105)"><rect x="0.5" y="0.5" rx="2" width="15" height="15" fill="#3572A5" stroke-width="1" stroke="#ffffff"/><text transform="scale(0.095)" x="263" y="132" textLength="1149" lengthAdjust="spacingAndGlyphs">Python 2.58%</text></g><g transform="translate(15, 126)"><rect x="0.5" y="0.5" rx="2" width="15" height="15" fill="#663399" stroke-width="1" stroke="#ffffff"/><text transform="scale(0.095)" x="263" y="132" textLength="903" lengthAdjust="spacingAndGlyphs">CSS 2.34%</text></g><g transform="translate(15, 147)"><rect x="0.5" y="0.5" rx="2" width="15" height="15" fill="#e34c26" stroke-width="1" stroke="#ffffff"/><text transform="scale(0.095)" x="263" y="132" textLength="1036" lengthAdjust="spacingAndGlyphs">HTML 1.72%</text></g><g transform="translate(15, 168)"><rect x="0.5" y="0.5" rx="2" width="15" height="15" fill="#959da5" stroke-width="1" stroke="#ffffff"/><text transform="scale(0.095)" x="263" y="132" textLength="1047" lengthAdjust="spacingAndGlyphs">Other 2.18%</text></g></g></g></svg>